<svg xmlns="http://www.w3.org/2000/svg" width="16" height="16">
  <path d="M 1 0 C 0.446 0 0 0.446 0 1 L 0 8 L 0 15 C 0 15.554 0.446 16 1 16 L 8 16 L 10 16 L 10 15 L 9 15 L 9 12 C 9 10.338 10.338 9 12 9 C 12.888703 9 13.676215 9.3898959 14.224609 10 L 16 10 L 16 1 C 16 0.446 15.554 0 15 0 L 8 0 L 1 0 z M 4 1 C 5.662 1 7 2.338 7 4 C 7 5.662 5.662 7 4 7 L 1 7 L 1 4 C 1 2.338 2.338 1 4 1 z M 12 1 C 13.662 1 15 2.338 15 4 C 15 5.662 13.662 7 12 7 L 9 7 L 9 4 C 9 2.338 10.338 1 12 1 z M 4 3 C 3.446 3 3 3.446 3 4 C 3 4.554 3.446 5 4 5 C 4.554 5 5 4.554 5 4 C 5 3.446 4.554 3 4 3 z M 12 3 C 11.446 3 11 3.446 11 4 C 11 4.554 11.446 5 12 5 C 12.554 5 13 4.554 13 4 C 13 3.446 12.554 3 12 3 z M 4 9 C 5.662 9 7 10.338 7 12 C 7 13.662 5.662 15 4 15 L 1 15 L 1 12 C 1 10.338 2.338 9 4 9 z M 4 11 C 3.446 11 3 11.446 3 12 C 3 12.554 3.446 13 4 13 C 4.554 13 5 12.554 5 12 C 5 11.446 4.554 11 4 11 z M 11 11 L 11 16 L 16 16 L 16 11 L 11 11 z M 12 12 L 13 12 L 13 13 L 14 13 L 14 12 L 15 12 L 15 14 L 14 14 L 14 15 L 13 15 L 13 14 L 12 14 L 12 12 z " fill="#c0bfbc" />
</svg>
